{
  "accessors": [
    {
      "bufferView": 2,
      "componentType": 5126,
      "count": 65532,
      "max": [
        1.3198740482330322,
        14.439874649047852,
        1.3318020105361938
      ],
      "min": [
        0.8500589728355408,
        13.987363815307617,
        -0.2450069934129715
      ],
      "type": "VEC3"
    },
    {
      "bufferView": 2,
      "byteOffset": 786384,
      "componentType": 5126,
      "count": 65532,
      "max": [
        0.9999918937683105,
        0.9999987483024597,
        0.9998214840888977
      ],
      "min": [
        -0.9999996423721313,
        -0.9999891519546509,
        -0.9999576210975647
      ],
      "type": "VEC3"
    },
    {
      "bufferView": 3,
      "componentType": 5126,
      "count": 65532,
      "max": [
        0.999960720539093,
        0.999903678894043,
        0.9999959468841553,
        1.0
      ],
      "min": [
        -0.9999745488166809,
        -0.9999805688858032,
        -0.9999915957450867,
        -1.0
      ],
      "type": "VEC4"
    },
    {
      "bufferView": 1,
      "componentType": 5126,
      "count": 65532,
      "max": [
        0.9997779726982117,
        0.9964179992675781
      ],
      "min": [
        0.004490000195801258,
        0.00016399999731220305
      ],
      "type": "VEC2"
    },
    {
      "bufferView": 0,
      "componentType": 5125,
      "count": 348306,
      "type": "SCALAR"
    },
    {
      "bufferView": 2,
      "byteOffset": 1572768,
      "componentType": 5126,
      "count": 55124,
      "max": [
        1.345234990119934,
        14.452649116516113,
        1.3285449743270874
      ],
      "min": [
        0.8500589728355408,
        13.920817375183105,
        -0.2450069934129715
      ],
      "type": "VEC3"
    },
    {
      "bufferView": 2,
      "byteOffset": 2234256,
      "componentType": 5126,
      "count": 55124,
      "max": [
        0.9999918937683105,
        0.9999616742134094,
        0.9999933242797852
      ],
      "min": [
        -0.9999996423721313,
        -0.9999846816062927,
        -0.9999975562095642
      ],
      "type": "VEC3"
    },
    {
      "bufferView": 3,
      "byteOffset": 1048512,
      "componentType": 5126,
      "count": 55124,
      "max": [
        0.999999463558197,
        0.9999092817306519,
        0.9999959468841553,
        1.0
      ],
      "min": [
        -0.9999978542327881,
        -0.9999843239784241,
        -0.9999814629554749,
        -1.0
      ],
      "type": "VEC4"
    },
    {
      "bufferView": 1,
      "byteOffset": 524256,
      "componentType": 5126,
      "count": 55124,
      "max": [
        0.999770998954773,
        0.9960820078849792
      ],
      "min": [
        3.400000059627928e-05,
        0.00018200000340584666
      ],
      "type": "VEC2"
    },
    {
      "bufferView": 0,
      "byteOffset": 1393224,
      "componentType": 5125,
      "count": 251646,
      "type": "SCALAR"
    }
  ],
  "asset": {
    "extras": {
      "author": "Giravolt (https://sketchfab.com/giravolt)",
      "license": "CC-BY-4.0 (http://creativecommons.org/licenses/by/4.0/)",
      "source": "https://sketchfab.com/3d-models/model-huma-anatomic-cos-mdeie-0e2f690b52e04a6ebfa169add933aa17",
      "title": "Model humà anatòmic (cos), MDEIE"
    },
    "generator": "Sketchfab-15.38.0",
    "version": "2.0"
  },
  "bufferViews": [
    {
      "buffer": 0,
      "byteLength": 2399808,
      "name": "floatBufferViews",
      "target": 34963
    },
    {
      "buffer": 0,
      "byteLength": 965248,
      "byteOffset": 2399808,
      "byteStride": 8,
      "name": "floatBufferViews",
      "target": 34962
    },
    {
      "buffer": 0,
      "byteLength": 2895744,
      "byteOffset": 3365056,
      "byteStride": 12,
      "name": "floatBufferViews",
      "target": 34962
    },
    {
      "buffer": 0,
      "byteLength": 1930496,
      "byteOffset": 6260800,
      "byteStride": 16,
      "name": "floatBufferViews",
      "target": 34962
    }
  ],
  "buffers": [
    {
      "byteLength": 8191296,
      "uri": "scene.bin"
    }
  ],
  "images": [
    {
      "uri": "textures/1095_01_200K_baseColor.jpeg"
    },
    {
      "uri": "textures/1095_01_200K_normal.jpeg"
    }
  ],
  "materials": [
    {
      "doubleSided": true,
      "name": "1095_01_200K",
      "normalTexture": {
        "index": 1
      },
      "pbrMetallicRoughness": {
        "baseColorTexture": {
          "index": 0
        },
        "metallicFactor": 0.0
      }
    }
  ],
  "meshes": [
    {
      "name": "Object_0",
      "primitives": [
        {
          "attributes": {
            "NORMAL": 1,
            "POSITION": 0,
            "TANGENT": 2,
            "TEXCOORD_0": 3
          },
          "indices": 4,
          "material": 0,
          "mode": 4
        }
      ]
    },
    {
      "name": "Object_1",
      "primitives": [
        {
          "attributes": {
            "NORMAL": 6,
            "POSITION": 5,
            "TANGENT": 7,
            "TEXCOORD_0": 8
          },
          "indices": 9,
          "material": 0,
          "mode": 4
        }
      ]
    }
  ],
  "nodes": [
    {
      "children": [
        1
      ],
      "matrix": [
        0.9878610968589783,
        3.4492356208664935e-17,
        -0.15533976256847382,
        0.0,
        -0.15533976256847382,
        2.1934922697285992e-16,
        -0.9878610968589783,
        0.0,
        0.0,
        1.0,
        2.220446049250313e-16,
        0.0,
        0.0,
        0.0,
        0.0,
        1.0
      ],
      "name": "Sketchfab_model"
    },
    {
      "children": [
        2,
        3
      ],
      "name": "1095_01_200K.obj.cleaner.materialmerger.gles"
    },
    {
      "mesh": 0,
      "name": "Object_2"
    },
    {
      "mesh": 1,
      "name": "Object_3"
    }
  ],
  "samplers": [
    {
      "magFilter": 9729,
      "minFilter": 9987,
      "wrapS": 10497,
      "wrapT": 10497
    }
  ],
  "scene": 0,
  "scenes": [
    {
      "name": "Sketchfab_Scene",
      "nodes": [
        0
      ]
    }
  ],
  "textures": [
    {
      "sampler": 0,
      "source": 0
    },
    {
      "sampler": 0,
      "source": 1
    }
  ]
}
