{
  "accessors": [
    {
      "bufferView": 1,
      "componentType": 5126,
      "count": 50500,
      "max": [
        6.482000350952148,
        3.492000102996826,
        7.340000152587891
      ],
      "min": [
        3.136000156402588,
        -0.0020000000949949026,
        0.16600000858306885
      ],
      "type": "VEC3"
    },
    {
      "bufferView": 1,
      "byteOffset": 606000,
      "componentType": 5126,
      "count": 50500,
      "max": [
        1.0,
        1.0,
        1.0
      ],
      "min": [
        -1.0,
        -1.0,
        -1.0
      ],
      "type": "VEC3"
    },
    {
      "bufferView": 0,
      "componentType": 5125,
      "count": 182304,
      "type": "SCALAR"
    }
  ],
  "asset": {
    "extras": {
      "author": "CUSM InfoCommons (https://sketchfab.com/CUSM)",
      "license": "CC-BY-NC-4.0 (http://creativecommons.org/licenses/by-nc/4.0/)",
      "source": "https://sketchfab.com/3d-models/arm-musculature-5ecca82de057413eb846d41e8d558b4f",
      "title": "Arm Musculature"
    },
    "generator": "Sketchfab-12.67.0",
    "version": "2.0"
  },
  "bufferViews": [
    {
      "buffer": 0,
      "byteLength": 729216,
      "name": "floatBufferViews",
      "target": 34963
    },
    {
      "buffer": 0,
      "byteLength": 1212000,
      "byteOffset": 729216,
      "byteStride": 12,
      "name": "floatBufferViews",
      "target": 34962
    }
  ],
  "buffers": [
    {
      "byteLength": 1941216,
      "uri": "scene.bin"
    }
  ],
  "extensionsUsed": [
    "KHR_materials_clearcoat"
  ],
  "materials": [
    {
      "doubleSided": true,
      "extensions": {
        "KHR_materials_clearcoat": {
          "clearcoatFactor": 1.0,
          "clearcoatRoughnessFactor": 0.04
        }
      },
      "name": "Scene_-_Root",
      "pbrMetallicRoughness": {
        "baseColorFactor": [
          0.6948497893219999,
          0.6948497893219999,
          0.6948497893219999,
          1.0
        ],
        "metallicFactor": 0.536765287075376,
        "roughnessFactor": 0.4
      }
    }
  ],
  "meshes": [
    {
      "name": "Object_0",
      "primitives": [
        {
          "attributes": {
            "NORMAL": 1,
            "POSITION": 0
          },
          "indices": 2,
          "material": 0,
          "mode": 4
        }
      ]
    }
  ],
  "nodes": [
    {
      "children": [
        1
      ],
      "matrix": [
        0.06546143442392349,
        0.12846992909908272,
        0.9895505309104919,
        0.0,
        -0.8069939613342285,
        -0.5764710307121277,
        0.1282260566949843,
        0.0,
        0.5869203805923462,
        -0.8069551587104797,
        0.06593783199787122,
        0.0,
        3.6996915340423584,
        7.1696419715881365,
        -6.97497510910034,
        1.0
      ],
      "name": "Sketchfab_model"
    },
    {
      "children": [
        2
      ],
      "name": "3DP_NLMVHM_RArm_0.stl.cleaner.materialmerger.gles"
    },
    {
      "mesh": 0,
      "name": "Object_2"
    }
  ],
  "scene": 0,
  "scenes": [
    {
      "name": "Sketchfab_Scene",
      "nodes": [
        0
      ]
    }
  ]
}
