{
  "accessors": [
    {
      "bufferView": 1,
      "componentType": 5126,
      "count": 65532,
      "max": [
        272.3418273925781,
        741.0166625976563,
        67.79517364501953
      ],
      "min": [
        1.3144118785858154,
        556.7404174804688,
        -14.8966646194458
      ],
      "type": "VEC3"
    },
    {
      "bufferView": 1,
      "byteOffset": 786384,
      "componentType": 5126,
      "count": 65532,
      "max": [
        0.9999432563781738,
        0.9982646703720093,
        1.0
      ],
      "min": [
        -1.0,
        -0.9999679327011108,
        -0.9999945759773254
      ],
      "type": "VEC3"
    },
    {
      "bufferView": 0,
      "componentType": 5125,
      "count": 352662,
      "type": "SCALAR"
    },
    {
      "bufferView": 1,
      "byteOffset": 1572768,
      "componentType": 5126,
      "count": 65532,
      "max": [
        271.93914794921875,
        754.5494995117188,
        79.4865493774414
      ],
      "min": [
        141.48394775390625,
        670.420166015625,
        -3.0302884578704834
      ],
      "type": "VEC3"
    },
    {
      "bufferView": 1,
      "byteOffset": 2359152,
      "componentType": 5126,
      "count": 65532,
      "max": [
        0.9985311627388,
        1.0,
        1.0
      ],
      "min": [
        -0.9994282722473145,
        -0.9998494982719421,
        -0.9999992847442627
      ],
      "type": "VEC3"
    },
    {
      "bufferView": 0,
      "byteOffset": 1410648,
      "componentType": 5125,
      "count": 345603,
      "type": "SCALAR"
    },
    {
      "bufferView": 1,
      "byteOffset": 3145536,
      "componentType": 5126,
      "count": 65532,
      "max": [
        271.6324768066406,
        752.8684692382813,
        66.94837188720703
      ],
      "min": [
        -27.299333572387695,
        538.0607299804688,
        -35.0181770324707
      ],
      "type": "VEC3"
    },
    {
      "bufferView": 1,
      "byteOffset": 3931920,
      "componentType": 5126,
      "count": 65532,
      "max": [
        0.9998151659965515,
        1.0,
        1.0
      ],
      "min": [
        -0.999552309513092,
        -0.999927282333374,
        -0.9999992251396179
      ],
      "type": "VEC3"
    },
    {
      "bufferView": 0,
      "byteOffset": 2793060,
      "componentType": 5125,
      "count": 328086,
      "type": "SCALAR"
    },
    {
      "bufferView": 1,
      "byteOffset": 4718304,
      "componentType": 5126,
      "count": 65532,
      "max": [
        260.83123779296875,
        753.9952392578125,
        70.693603515625
      ],
      "min": [
        -42.25948715209961,
        515.6544799804688,
        -32.22929382324219
      ],
      "type": "VEC3"
    },
    {
      "bufferView": 1,
      "byteOffset": 5504688,
      "componentType": 5126,
      "count": 65532,
      "max": [
        0.9997950196266174,
        0.9999919533729553,
        0.9999970197677612
      ],
      "min": [
        -0.9997259378433228,
        -0.999346911907196,
        -0.9999962449073792
      ],
      "type": "VEC3"
    },
    {
      "bufferView": 0,
      "byteOffset": 4105404,
      "componentType": 5125,
      "count": 338025,
      "type": "SCALAR"
    },
    {
      "bufferView": 1,
      "byteOffset": 6291072,
      "componentType": 5126,
      "count": 65532,
      "max": [
        248.3352508544922,
        741.710205078125,
        65.8113021850586
      ],
      "min": [
        -42.89570617675781,
        514.3037719726563,
        -29.18770980834961
      ],
      "type": "VEC3"
    },
    {
      "bufferView": 1,
      "byteOffset": 7077456,
      "componentType": 5126,
      "count": 65532,
      "max": [
        0.997902512550354,
        0.9998737573623657,
        1.0
      ],
      "min": [
        -0.9998183846473694,
        -0.9999714493751526,
        -0.9999899864196777
      ],
      "type": "VEC3"
    },
    {
      "bufferView": 0,
      "byteOffset": 5457504,
      "componentType": 5125,
      "count": 326229,
      "type": "SCALAR"
    },
    {
      "bufferView": 1,
      "byteOffset": 7863840,
      "componentType": 5126,
      "count": 65532,
      "max": [
        253.75559997558594,
        742.1557006835938,
        75.71346282958984
      ],
      "min": [
        -42.99662399291992,
        520.3919067382813,
        -37.54557418823242
      ],
      "type": "VEC3"
    },
    {
      "bufferView": 1,
      "byteOffset": 8650224,
      "componentType": 5126,
      "count": 65532,
      "max": [
        0.9997850656509399,
        0.9999977946281433,
        0.9998772740364075
      ],
      "min": [
        -0.9992625117301941,
        -0.9999894499778748,
        -0.9999877214431763
      ],
      "type": "VEC3"
    },
    {
      "bufferView": 0,
      "byteOffset": 6762420,
      "componentType": 5125,
      "count": 328077,
      "type": "SCALAR"
    },
    {
      "bufferView": 1,
      "byteOffset": 9436608,
      "componentType": 5126,
      "count": 65532,
      "max": [
        270.1020812988281,
        743.4732666015625,
        65.02590942382813
      ],
      "min": [
        -43.195743560791016,
        520.9973754882813,
        -36.65887451171875
      ],
      "type": "VEC3"
    },
    {
      "bufferView": 1,
      "byteOffset": 10222992,
      "componentType": 5126,
      "count": 65532,
      "max": [
        0.9997903108596802,
        0.9999589323997498,
        0.9999597072601318
      ],
      "min": [
        -0.9999433755874634,
        -0.999962568283081,
        -0.9999921321868896
      ],
      "type": "VEC3"
    },
    {
      "bufferView": 0,
      "byteOffset": 8074728,
      "componentType": 5125,
      "count": 332778,
      "type": "SCALAR"
    },
    {
      "bufferView": 1,
      "byteOffset": 11009376,
      "componentType": 5126,
      "count": 65532,
      "max": [
        254.74610900878906,
        747.8167724609375,
        63.48563003540039
      ],
      "min": [
        -42.847442626953125,
        529.3172607421875,
        -36.30332946777344
      ],
      "type": "VEC3"
    },
    {
      "bufferView": 1,
      "byteOffset": 11795760,
      "componentType": 5126,
      "count": 65532,
      "max": [
        0.9997346997261047,
        0.9999719262123108,
        0.9999906420707703
      ],
      "min": [
        -0.9999291300773621,
        -0.9999034404754639,
        -0.999992311000824
      ],
      "type": "VEC3"
    },
    {
      "bufferView": 0,
      "byteOffset": 9405840,
      "componentType": 5125,
      "count": 319209,
      "type": "SCALAR"
    },
    {
      "bufferView": 1,
      "byteOffset": 12582144,
      "componentType": 5126,
      "count": 65532,
      "max": [
        269.0617370605469,
        748.4649658203125,
        74.91565704345703
      ],
      "min": [
        -43.18789291381836,
        514.9972534179688,
        -36.62144088745117
      ],
      "type": "VEC3"
    },
    {
      "bufferView": 1,
      "byteOffset": 13368528,
      "componentType": 5126,
      "count": 65532,
      "max": [
        0.9987678527832031,
        1.0,
        0.9999880194664001
      ],
      "min": [
        -0.9994651079177856,
        -0.9999253153800964,
        -0.9999833703041077
      ],
      "type": "VEC3"
    },
    {
      "bufferView": 0,
      "byteOffset": 10682676,
      "componentType": 5125,
      "count": 292008,
      "type": "SCALAR"
    },
    {
      "bufferView": 1,
      "byteOffset": 14154912,
      "componentType": 5126,
      "count": 65532,
      "max": [
        272.23834228515625,
        751.0072021484375,
        78.37313079833984
      ],
      "min": [
        -42.861995697021484,
        514.3037719726563,
        -37.36515426635742
      ],
      "type": "VEC3"
    },
    {
      "bufferView": 1,
      "byteOffset": 14941296,
      "componentType": 5126,
      "count": 65532,
      "max": [
        0.9999103546142578,
        0.9999673962593079,
        0.9999938011169434
      ],
      "min": [
        -0.9994116425514221,
        -0.9999894499778748,
        -0.9999994039535522
      ],
      "type": "VEC3"
    },
    {
      "bufferView": 0,
      "byteOffset": 11850708,
      "componentType": 5125,
      "count": 252780,
      "type": "SCALAR"
    },
    {
      "bufferView": 1,
      "byteOffset": 15727680,
      "componentType": 5126,
      "count": 52790,
      "max": [
        272.35772705078125,
        754.4365234375,
        78.51371002197266
      ],
      "min": [
        -38.74281311035156,
        519.9935302734375,
        -37.24577713012695
      ],
      "type": "VEC3"
    },
    {
      "bufferView": 1,
      "byteOffset": 16361160,
      "componentType": 5126,
      "count": 52790,
      "max": [
        0.9998151659965515,
        1.0,
        0.9999999403953552
      ],
      "min": [
        -0.9998665452003479,
        -1.0,
        -0.9999821782112122
      ],
      "type": "VEC3"
    },
    {
      "bufferView": 0,
      "byteOffset": 12861828,
      "componentType": 5125,
      "count": 165021,
      "type": "SCALAR"
    }
  ],
  "asset": {
    "extras": {
      "author": "Thunk3D scanner (https://sketchfab.com/Diana123456)",
      "license": "CC-BY-4.0 (http://creativecommons.org/licenses/by/4.0/)",
      "source": "https://sketchfab.com/3d-models/anatomical-model-bb530aae58164a8e9ba92ea5ca2e5e4e",
      "title": "Anatomical model"
    },
    "generator": "Sketchfab-14.20.0",
    "version": "2.0"
  },
  "bufferViews": [
    {
      "buffer": 0,
      "byteLength": 13521912,
      "name": "floatBufferViews",
      "target": 34963
    },
    {
      "buffer": 0,
      "byteLength": 16994640,
      "byteOffset": 13521912,
      "byteStride": 12,
      "name": "floatBufferViews",
      "target": 34962
    }
  ],
  "buffers": [
    {
      "byteLength": 30516552,
      "uri": "scene.bin"
    }
  ],
  "materials": [
    {
      "doubleSided": true,
      "name": "material_0",
      "pbrMetallicRoughness": {
        "baseColorFactor": [
          0.714176245210728,
          0.714176245210728,
          0.714176245210728,
          1.0
        ],
        "metallicFactor": 0.6590038314176245,
        "roughnessFactor": 0.6242971046825052
      }
    }
  ],
  "meshes": [
    {
      "name": "Object_0",
      "primitives": [
        {
          "attributes": {
            "NORMAL": 1,
            "POSITION": 0
          },
          "indices": 2,
          "material": 0,
          "mode": 4
        }
      ]
    },
    {
      "name": "Object_1",
      "primitives": [
        {
          "attributes": {
            "NORMAL": 4,
            "POSITION": 3
          },
          "indices": 5,
          "material": 0,
          "mode": 4
        }
      ]
    },
    {
      "name": "Object_2",
      "primitives": [
        {
          "attributes": {
            "NORMAL": 7,
            "POSITION": 6
          },
          "indices": 8,
          "material": 0,
          "mode": 4
        }
      ]
    },
    {
      "name": "Object_3",
      "primitives": [
        {
          "attributes": {
            "NORMAL": 10,
            "POSITION": 9
          },
          "indices": 11,
          "material": 0,
          "mode": 4
        }
      ]
    },
    {
      "name": "Object_4",
      "primitives": [
        {
          "attributes": {
            "NORMAL": 13,
            "POSITION": 12
          },
          "indices": 14,
          "material": 0,
          "mode": 4
        }
      ]
    },
    {
      "name": "Object_5",
      "primitives": [
        {
          "attributes": {
            "NORMAL": 16,
            "POSITION": 15
          },
          "indices": 17,
          "material": 0,
          "mode": 4
        }
      ]
    },
    {
      "name": "Object_6",
      "primitives": [
        {
          "attributes": {
            "NORMAL": 19,
            "POSITION": 18
          },
          "indices": 20,
          "material": 0,
          "mode": 4
        }
      ]
    },
    {
      "name": "Object_7",
      "primitives": [
        {
          "attributes": {
            "NORMAL": 22,
            "POSITION": 21
          },
          "indices": 23,
          "material": 0,
          "mode": 4
        }
      ]
    },
    {
      "name": "Object_8",
      "primitives": [
        {
          "attributes": {
            "NORMAL": 25,
            "POSITION": 24
          },
          "indices": 26,
          "material": 0,
          "mode": 4
        }
      ]
    },
    {
      "name": "Object_9",
      "primitives": [
        {
          "attributes": {
            "NORMAL": 28,
            "POSITION": 27
          },
          "indices": 29,
          "material": 0,
          "mode": 4
        }
      ]
    },
    {
      "name": "Object_10",
      "primitives": [
        {
          "attributes": {
            "NORMAL": 31,
            "POSITION": 30
          },
          "indices": 32,
          "material": 0,
          "mode": 4
        }
      ]
    }
  ],
  "nodes": [
    {
      "children": [
        1
      ],
      "matrix": [
        -0.3243759274482727,
        -0.8168417215347291,
        0.4770218431949614,
        0.0,
        0.3670859634876251,
        -0.573470652103424,
        -0.7323792576789857,
        0.0,
        0.8717959523200989,
        -0.06245817989110958,
        0.48587119579315186,
        0.0,
        0.0,
        0.0,
        0.0,
        1.0
      ],
      "name": "Sketchfab_model"
    },
    {
      "children": [
        2,
        3,
        4,
        5,
        6,
        7,
        8,
        9,
        10,
        11,
        12
      ],
      "name": "dddddddd.obj.cleaner.materialmerger.gles"
    },
    {
      "mesh": 0,
      "name": "Object_2"
    },
    {
      "mesh": 1,
      "name": "Object_3"
    },
    {
      "mesh": 2,
      "name": "Object_4"
    },
    {
      "mesh": 3,
      "name": "Object_5"
    },
    {
      "mesh": 4,
      "name": "Object_6"
    },
    {
      "mesh": 5,
      "name": "Object_7"
    },
    {
      "mesh": 6,
      "name": "Object_8"
    },
    {
      "mesh": 7,
      "name": "Object_9"
    },
    {
      "mesh": 8,
      "name": "Object_10"
    },
    {
      "mesh": 9,
      "name": "Object_11"
    },
    {
      "mesh": 10,
      "name": "Object_12"
    }
  ],
  "scene": 0,
  "scenes": [
    {
      "name": "Sketchfab_Scene",
      "nodes": [
        0
      ]
    }
  ]
}
